<?xml version="1.0" encoding="iso-8859-1"?>
<!-- Generator: Adobe Illustrator 19.0.0, SVG Export Plug-In . SVG Version: 6.00 Build 0)  -->
<svg version="1.1" id="Layer_1" xmlns="http://www.w3.org/2000/svg" xmlns:xlink="http://www.w3.org/1999/xlink" x="0px" y="0px"
	 viewBox="0 0 512.002 512.002" style="enable-background:new 0 0 512.002 512.002;" xml:space="preserve">
<path style="fill:#9FDEF7;" d="M158.264,187.777h36.964c13.807-25.333,37.407-44.54,65.73-52.526
	c-5.698-13.835-19.305-23.575-35.191-23.575c-3.97,0-7.797,0.612-11.393,1.738c0.019-0.578,0.044-1.155,0.044-1.738
	c0-28.259-22.913-51.171-51.174-51.171c-24.373,0-44.749,17.038-49.903,39.85c-3.061-1.02-6.328-1.579-9.729-1.579
	c-10.469,0-19.71,5.242-25.253,13.241c-3.092-0.797-6.34-1.23-9.682-1.23c-21.26,0-38.492,17.234-38.492,38.494
	c0,21.256,17.233,38.494,38.492,38.494h61.542"/>
<path style="fill:#BEEAFC;" d="M369.578,165.557c-19.779-21.155-47.935-34.379-79.179-34.379
	c-51.609,0-94.762,36.087-105.678,84.396c-6.477-2.16-13.396-3.349-20.6-3.349c-22.172,0-41.739,11.102-53.475,28.044
	c-6.551-1.692-13.42-2.601-20.501-2.601c-45.02,0-81.515,36.495-81.515,81.515c0,45.018,36.495,81.517,81.515,81.517h89.875
	c0.19-27.709,22.699-50.111,50.446-50.111c5.262,0,10.338,0.807,15.107,2.302c-0.024-0.764-0.058-1.528-0.058-2.302
	c0-37.48,30.383-67.863,67.861-67.863c32.316,0,59.341,22.598,66.176,52.848c4.055-1.354,8.387-2.097,12.897-2.097
	c13.884,0,26.138,6.951,33.486,17.563c4.102-1.061,8.404-1.631,12.838-1.631c18.583,0,34.841,9.932,43.769,24.773
	c12.943-14.295,20.83-33.254,20.83-54.055c0-44.503-36.074-80.574-80.574-80.574c-8.403,0-16.505,1.288-24.12,3.675
	c0.039-1.221,0.092-2.444,0.092-3.675c0-18.197-4.485-35.347-12.411-50.405"/>
<path style="fill:#E4F2F9;" d="M381.527,451.496H230.468c-27.863,0-50.451-22.588-50.451-50.45c0-27.87,22.589-50.456,50.451-50.456
	c5.262,0,10.338,0.807,15.107,2.302c-0.024-0.764-0.058-1.528-0.058-2.302c0-37.48,30.383-67.863,67.861-67.863
	c32.316,0,59.341,22.598,66.176,52.848c4.055-1.354,8.387-2.097,12.897-2.097c13.884,0,26.138,6.951,33.486,17.563
	c4.102-1.061,8.404-1.631,12.838-1.631c28.192,0,51.046,22.853,51.046,51.043s-22.854,51.044-51.046,51.044h-29.212"/>
<path style="fill:#D7EDF9;" d="M284.275,336.599c0-18.212,3.865-35.519,10.809-51.157c-28.589,7.989-49.567,34.21-49.567,65.348
	c0,0.773,0.033,1.538,0.058,2.302c-4.769-1.495-9.845-2.302-15.107-2.302c-27.863,0-50.451,22.586-50.451,50.456
	c0,27.863,22.589,50.45,50.451,50.45h128.207C314.812,431.934,284.275,387.833,284.275,336.599z"/>
<path style="fill:#AEE4FF;" d="M95.06,240.178c-1.626-0.098-3.263-0.152-4.913-0.152c-45.02,0-81.515,36.495-81.515,81.515
	c0,45.018,36.495,81.517,81.515,81.517h89.875c0.06-8.695,2.318-16.866,6.246-23.987C141.83,344.873,109.088,296.238,95.06,240.178z
	"/>
<path style="fill:#83D4ED;" d="M87.495,178.611c0-26.44,4.066-51.927,11.593-75.881c-8.119,1.499-15.119,6.191-19.647,12.727
	c-3.092-0.797-6.34-1.23-9.682-1.23c-21.26,0-38.492,17.234-38.492,38.494c0,21.256,17.232,38.494,38.492,38.494h18.047
	C87.603,187.038,87.495,182.837,87.495,178.611z"/>
<path style="fill:#231F20;" d="M512.002,320.127c0-49.185-40.017-89.202-89.202-89.202c-5.264,0-10.49,0.458-15.627,1.368
	c-1.027-16.465-5.531-32.634-13.177-47.163c-2.219-4.217-7.436-5.838-11.654-3.617c-4.217,2.22-5.836,7.438-3.617,11.654
	c7.47,14.191,11.417,30.232,11.417,46.388c0,0.88-0.031,1.757-0.061,2.629l-0.026,0.77c-0.09,2.793,1.181,5.456,3.405,7.146
	c2.226,1.689,5.128,2.199,7.799,1.362c6.945-2.176,14.192-3.28,21.54-3.28c39.671,0,71.946,32.275,71.946,71.946
	c0,14.321-4.239,28.168-12.088,39.92c-0.303-0.327-0.622-0.636-0.933-0.957c-0.339-0.352-0.674-0.704-1.02-1.047
	c-0.235-0.231-0.476-0.454-0.714-0.681c-0.541-0.518-1.089-1.028-1.649-1.526c-0.091-0.081-0.183-0.159-0.275-0.238
	c-10.506-9.213-24.253-14.817-39.291-14.817c-3.14,0-6.271,0.247-9.361,0.734c-9.311-10.528-22.746-16.667-36.963-16.667
	c-2.309,0-4.606,0.161-6.881,0.481c-4.678-13.326-13.048-25.267-24.12-34.229c-13.544-10.964-30.616-17.003-48.071-17.003
	c-39.395,0-71.93,29.937-76.049,68.258c-2.269-0.262-4.56-0.395-6.861-0.395c-0.969,0-1.931,0.027-2.887,0.073
	c-0.367,0.017-0.729,0.052-1.094,0.076c-0.58,0.039-1.161,0.077-1.736,0.133c-0.464,0.045-0.923,0.105-1.384,0.161
	c-0.462,0.056-0.923,0.11-1.382,0.176c-0.527,0.077-1.05,0.166-1.574,0.256c-0.372,0.065-0.745,0.128-1.115,0.2
	c-0.586,0.112-1.168,0.237-1.747,0.367c-0.284,0.064-0.567,0.128-0.849,0.196c-0.651,0.156-1.297,0.323-1.94,0.5
	c-0.179,0.05-0.357,0.101-0.535,0.152c-0.732,0.21-1.459,0.43-2.18,0.668c-0.04,0.013-0.08,0.027-0.12,0.041
	c-20.77,6.885-36.473,24.993-39.857,47.113H90.146c-40.19,0-72.887-32.698-72.887-72.889c0-40.19,32.697-72.887,72.887-72.887
	c6.194,0,12.365,0.783,18.343,2.327c3.498,0.899,7.193-0.469,9.251-3.441c10.552-15.234,27.891-24.329,46.382-24.329
	c6.076,0,12.088,0.977,17.869,2.906c2.312,0.773,4.844,0.53,6.967-0.669c2.124-1.196,3.641-3.237,4.179-5.614
	c1.972-8.725,5.029-16.944,9.002-24.539c0.243-0.326,0.467-0.668,0.664-1.031c12.808-23.498,34.857-41.121,60.496-48.349
	c0.305-0.086,0.603-0.19,0.894-0.307c8.369-2.244,17.155-3.443,26.204-3.443c27.918,0,53.799,11.238,72.876,31.644
	c3.254,3.48,8.713,3.665,12.196,0.41c3.482-3.255,3.664-8.715,0.41-12.196c-22.052-23.586-53.209-37.114-85.482-37.114
	c-8.404,0-16.749,0.919-24.886,2.695c-8.401-13.683-23.304-22.196-39.745-22.196c-1.111,0-2.22,0.039-3.323,0.116
	c-4.144-28.959-29.112-51.288-59.199-51.288c-25.271,0-47.186,15.441-55.881,38.449c-1.244-0.118-2.495-0.178-3.751-0.178
	c-10.942,0-21.302,4.561-28.685,12.427c-2.072-0.276-4.16-0.415-6.25-0.415c-25.983,0-47.12,21.139-47.12,47.122
	s21.138,47.122,47.12,47.122h61.542c4.765,0,8.628-3.863,8.628-8.628c0-4.765-3.863-8.628-8.628-8.628H68.681
	c-16.467,0-29.863-13.398-29.863-29.866c0-16.469,13.398-29.866,29.863-29.866c2.536,0,5.067,0.321,7.527,0.957
	c3.499,0.901,7.189-0.472,9.246-3.442c4.133-5.965,10.922-9.527,18.16-9.527c2.385,0,4.74,0.382,7,1.136
	c2.312,0.773,4.845,0.527,6.966-0.669c2.125-1.197,3.642-3.238,4.179-5.615c4.405-19.502,21.464-33.123,41.486-33.123
	c23.46,0,42.546,19.085,42.546,42.543c0,0.366-0.015,0.728-0.027,1.09l-0.013,0.366c-0.092,2.793,1.177,5.46,3.402,7.151
	c2.225,1.691,5.132,2.2,7.8,1.366c2.847-0.892,5.813-1.344,8.814-1.344c8.74,0,16.794,3.816,22.279,10.187
	c-0.3,0.118-0.593,0.25-0.892,0.37c-0.547,0.218-1.087,0.451-1.631,0.676c-0.849,0.355-1.699,0.709-2.539,1.083
	c-1.004,0.444-1.996,0.914-2.988,1.386c-0.342,0.164-0.686,0.322-1.027,0.49c-7.837,3.831-15.268,8.525-22.101,14.056
	c-9.251,7.489-17.259,16.344-23.798,26.153c-0.283,0.422-0.554,0.851-0.83,1.278c-0.527,0.813-1.049,1.63-1.556,2.457
	c-0.147,0.238-0.304,0.469-0.449,0.709h-31.974c-4.765,0-8.628,3.863-8.628,8.628s3.863,8.628,8.628,8.628h23.407
	c-1.129,2.834-2.155,5.711-3.058,8.63c-4.764-0.958-9.612-1.44-14.492-1.44c-22.176,0-43.078,10.009-57.012,27.041
	c-5.582-1.061-11.264-1.598-16.963-1.598C40.438,229.039,0,269.478,0,319.183c0,49.706,40.438,90.146,90.144,90.146h81.833
	c4.041,28.667,28.722,50.797,58.488,50.797h151.06c4.765,0,8.628-3.863,8.628-8.628c0-4.765-3.863-8.628-8.628-8.628H230.468
	c-23.062,0-41.823-18.762-41.823-41.822c0-0.201,0.012-0.398,0.015-0.598c0.009-0.601,0.024-1.199,0.057-1.795
	c0.004-0.074,0.012-0.148,0.017-0.222c0.04-0.642,0.09-1.28,0.159-1.913c0-0.004,0.001-0.008,0.001-0.012
	c2.279-20.916,20.106-37.29,41.573-37.29c4.275,0,8.489,0.642,12.526,1.907c2.668,0.837,5.573,0.328,7.798-1.362
	c2.225-1.69,3.494-4.352,3.406-7.145l-0.018-0.521c-0.017-0.499-0.036-1.001-0.036-1.506c0-32.662,26.572-59.235,59.233-59.235
	c27.429,0,51.721,19.396,57.76,46.122c0.538,2.378,2.056,4.418,4.18,5.615c2.127,1.197,4.657,1.44,6.968,0.668
	c3.286-1.098,6.706-1.653,10.165-1.653c10.523,0,20.389,5.177,26.393,13.846c2.058,2.975,5.752,4.348,9.256,3.442
	c3.474-0.9,7.065-1.356,10.675-1.356c0.841,0,1.675,0.032,2.507,0.08c0.311,0.018,0.619,0.046,0.929,0.071
	c0.496,0.039,0.99,0.087,1.483,0.143c0.404,0.047,0.809,0.096,1.21,0.154c0.328,0.047,0.654,0.105,0.98,0.159
	c10.927,1.852,20.448,7.886,26.839,16.406c0.026,0.035,0.052,0.069,0.078,0.104c5.269,7.068,8.392,15.824,8.392,25.298
	c0,23.388-19.029,42.415-42.418,42.415h-29.21c-4.765,0-8.628,3.863-8.628,8.628s3.863,8.628,8.628,8.628h29.211
	c32.905,0,59.674-26.768,59.674-59.672c0-8.986-2.009-17.509-5.582-25.161C505.234,359.604,512.002,340.249,512.002,320.127z"/>
<g>
</g>
<g>
</g>
<g>
</g>
<g>
</g>
<g>
</g>
<g>
</g>
<g>
</g>
<g>
</g>
<g>
</g>
<g>
</g>
<g>
</g>
<g>
</g>
<g>
</g>
<g>
</g>
<g>
</g>
</svg>
