<?xml version="1.0" encoding="iso-8859-1"?>
<!-- Generator: Adobe Illustrator 19.0.0, SVG Export Plug-In . SVG Version: 6.00 Build 0)  -->
<svg xmlns="http://www.w3.org/2000/svg" xmlns:xlink="http://www.w3.org/1999/xlink" version="1.1" id="Layer_1" x="0px" y="0px" viewBox="0 0 511.999 511.999" style="enable-background:new 0 0 511.999 511.999;" xml:space="preserve" width="512" height="512">
<g>
	<g>
		<path style="fill-rule:evenodd;clip-rule:evenodd;fill:#EEC049;" d="M117.046,229.473c32.822,0,59.437-26.62,59.437-59.41    c0-13.293-4.375-25.61-11.778-35.513c-10.858-14.482-28.171-23.863-47.658-23.863c-32.851,0-59.465,26.587-59.465,59.376    c0,14.395,5.109,27.565,13.644,37.835C82.114,221.069,98.602,229.473,117.046,229.473L117.046,229.473z"/>
	</g>
	<g>
		<path style="fill-rule:evenodd;clip-rule:evenodd;fill:#BDE5F8;" d="M337.044,406.417c92.747,0.244,107.277-110.476,40.256-152.68    c12.878-44.923-30.65-87.31-78.828-74.78c-31.69-48.682-95.377-61.091-143.984-38.414c-20.556,9.564-38.388,25.365-50.013,47.367    c-4.496-1.16-9.208-1.77-14.071-1.77c-28.386,0-51.695,20.718-54.081,47.092c-0.122,1.467-0.215,2.964-0.215,4.493    c0,3.727,0.429,7.395,1.224,10.938c-61.668,36.947-44.843,155.093,39.491,158.18l38.114-0.061L337.044,406.417z"/>
	</g>
	<g>
		<path style="fill:#E0954F;" d="M129.015,93.132c-0.54,0-1.088-0.057-1.638-0.174c-4.202-0.899-6.881-5.034-5.981-9.233    l5.263-24.573c0.9-4.2,5.04-6.876,9.239-5.978c4.203,0.898,6.882,5.033,5.981,9.233l-5.263,24.573    C135.834,90.631,132.605,93.132,129.015,93.132z"/>
	</g>
	<g>
		<path style="fill:#E0954F;" d="M27.909,169.346H7.782c-4.299,0-7.782-3.482-7.782-7.778c0-4.295,3.483-7.777,7.782-7.777h20.127    c4.298,0,7.782,3.483,7.782,7.777C35.691,165.863,32.207,169.346,27.909,169.346z"/>
	</g>
	<g>
		<path style="fill:#E0954F;" d="M41.884,124.761c-1.091,0-2.198-0.229-3.255-0.716l-20.953-9.658    c-3.903-1.799-5.607-6.42-3.808-10.32c1.8-3.901,6.423-5.604,10.327-3.806l20.953,9.657c3.903,1.799,5.607,6.42,3.808,10.321    C47.644,123.085,44.827,124.761,41.884,124.761z"/>
	</g>
	<g>
		<path style="fill:#E0954F;" d="M77.132,98.723c-3.051,0-5.946-1.804-7.19-4.795l-8.779-21.116c-1.649-3.966,0.23-8.519,4.2-10.168    c3.968-1.647,8.524,0.23,10.174,4.198l8.779,21.117c1.649,3.966-0.231,8.518-4.2,10.167    C79.139,98.531,78.127,98.723,77.132,98.723z"/>
	</g>
	<g>
		<path style="fill-rule:evenodd;clip-rule:evenodd;fill:#88BCE4;" d="M484.668,327.511c4.313-14.975-0.948-29.552-11.318-39.179    c-10.063-9.353-24.93-14.09-40.562-10.023c-4.589-7.06-10.186-12.959-16.487-17.694c-34.413-25.884-89.352-17.571-111.131,23.591    c-2.967-0.762-6.057-1.16-9.268-1.16c-19.729,0-35.697,15.189-35.697,33.924c0,2.475,0.274,4.888,0.795,7.21    c-25.664,15.372-30.65,52.104-16.855,77.532c8.046,14.822,22.423,25.794,42.826,26.555l25.083-0.06    c20.433,33.371,70.996,41.439,101.678,15.188c3.763,3.67,9.024,5.932,14.836,5.932c11.44,0,20.738-8.802,20.738-19.682    c0-0.55-0.03-1.101-0.09-1.65l8.962-0.031c5.475,0.031,10.522-0.549,15.172-1.617c14.377-3.332,24.747-11.461,31.11-21.852    c4.526-7.427,7.035-15.952,7.463-24.785c0.49-9.352-1.376-18.979-5.537-27.809c-0.03-0.063-0.06-0.124-0.091-0.184    c-0.551-1.162-1.163-2.354-1.835-3.483c0-0.032,0-0.032,0-0.032C499.931,340.164,493.325,332.979,484.668,327.511L484.668,327.511    z"/>
	</g>
	<g>
		<path style="fill-rule:evenodd;clip-rule:evenodd;fill:#E0954F;" d="M164.704,134.551c-10.858-14.482-28.171-23.863-47.658-23.863    c-17.924,0-33.983,7.912-44.903,20.442c7.219-3.117,15.171-4.827,23.523-4.827c18.383,0,34.81,8.341,45.729,21.422    c4.191-2.69,8.566-5.072,13.092-7.182c3.671-1.711,7.434-3.239,11.258-4.553C165.408,135.533,165.041,135.043,164.704,134.551    L164.704,134.551z"/>
	</g>
	<g>
		<path style="fill-rule:evenodd;clip-rule:evenodd;fill:#A5CDEF;" d="M378.952,246.251c6.332-41.99-34.994-79.122-80.48-67.294    c-31.69-48.682-95.377-61.091-143.984-38.414c-17.497,8.159-33.036,20.843-44.477,38.018    C185.048,192.344,244.635,250.162,261,324.179l0,0c-0.521-2.322-0.795-4.735-0.795-7.21c0-18.735,15.968-33.924,35.697-33.924    c3.211,0,6.301,0.398,9.268,1.16C320.006,256.121,350.289,243.348,378.952,246.251L378.952,246.251z"/>
	</g>
	<g>
		<path style="fill-rule:evenodd;clip-rule:evenodd;fill:#679CC4;" d="M484.668,327.511c4.313-14.975-0.948-29.552-11.318-39.179    c-10.063-9.353-24.93-14.09-40.562-10.023c-4.589-7.06-10.186-12.959-16.487-17.694c-22.023-16.563-52.43-19.132-77.176-8.038    c47.536,34.016,78.523,89.695,78.523,152.587c0,13.112-1.348,25.886-3.917,38.23l0,0c3.763,3.67,9.024,5.932,14.836,5.932    c11.44,0,20.738-8.802,20.738-19.682c0-0.55-0.03-1.101-0.09-1.65l8.962-0.031c5.475,0.031,10.522-0.549,15.172-1.617    c14.377-3.332,24.747-11.461,31.11-21.852c4.526-7.427,7.035-15.952,7.463-24.785c0.49-9.352-1.376-18.979-5.537-27.809    c-0.03-0.063-0.06-0.124-0.091-0.184c-0.551-1.162-1.163-2.354-1.835-3.483c0-0.032,0-0.032,0-0.032    C499.931,340.164,493.325,332.979,484.668,327.511L484.668,327.511z"/>
	</g>
</g>















</svg>
