<svg id="Capa_1" enable-background="new 0 0 510 510" height="512" viewBox="0 0 510 510" width="512" xmlns="http://www.w3.org/2000/svg"><g><path d="m309.4 75.263-13.84 5.79c-11.475 11.854-157.358 162.628-167.51 173.11v15h-45.05c-45.77 0-83-37.23-83-83 0-45.84 37.1-83 83-83h14.01c12.272-90.483 123.522-128.468 188.48-63.48 10.28 10.26 18.32 22.24 23.91 35.58z" fill="#00465f"/><path d="m309.4 75.263-13.84 5.79c-5.14 5.31-46.29 47.84-86.54 89.43v-163.36c45.525.506 84.054 29.178 100.38 68.14z" fill="#002c3c"/><path d="m510 262.163c0 34.792-28.152 63-63 63h-136v-15h-97.48v15h-18.52c-45.77 0-83-37.23-83-83 0-45.839 37.102-83 83-83h14.01c6.49-47.86 43.59-86.11 90.87-94.35 68.176-11.861 130.12 40.591 130.12 109.35v25h17c34.74 0 63 28.26 63 63z" fill="#00607f"/><path d="m510 262.163c0 34.792-28.152 63-63 63h-136v-15h-6.96v-245.99c66.173-9.208 125.96 42.438 125.96 109.99v25h17c34.74 0 63 28.26 63 63z" fill="#00465f"/><path d="m429.94 295.163c-9.342 8.453-223.074 201.825-229.59 207.72l20.68-113.72h-51.21l58.24-165.52h138.08l-32 71.52z" fill="#fc0"/><path d="m429.94 295.163-125.9 113.91v-185.43h62.1l-32 71.52z" fill="#ff9e22"/></g></svg>